<svg xmlns="http://www.w3.org/2000/svg" fill="none" viewBox="0 0 100 100"><g clip-path="url(#a)"><path fill="#5C2D91" d="M50 100c27.614 0 50-22.386 50-50S77.614 0 50 0 0 22.386 0 50s22.386 50 50 50"/><path fill="#fff" d="M16.736 13a50 50 0 1 0 70.593 70.593z" opacity=".1"/><path fill="#fff" d="M11.562 58.203A2.1 2.1 0 0 1 10 57.547a2.16 2.16 0 0 1-.64-1.563 2.2 2.2 0 0 1 .64-1.562 2.1 2.1 0 0 1 1.562-.672 2.14 2.14 0 0 1 1.563.672 2.17 2.17 0 0 1 .656 1.562 2.14 2.14 0 0 1-.656 1.563 2.15 2.15 0 0 1-1.563.656m31.048-.39h-4.094l-14.641-22.72a9.4 9.4 0 0 1-.906-1.78h-.125c.139 1.297.191 2.602.156 3.906v20.594h-3.328V29.328H24l14.25 22.313q.892 1.39 1.156 1.906h.078a30 30 0 0 1-.203-4.188V29.33h3.328zm22.53 0H50V29.328h14.438v3.016H53.406v9.468h10.282v3H53.406v9.876h11.75zM87.5 32.344h-8.281v25.469H75.89v-25.47h-8.188v-3.015H87.5z"/><path fill="#F2F2F2" d="M40.813 77.188a7.7 7.7 0 0 1-3.626.765 5.84 5.84 0 0 1-4.484-1.797 6.66 6.66 0 0 1-1.687-4.687 6.97 6.97 0 0 1 1.89-5.094 6.44 6.44 0 0 1 4.813-1.937 7.7 7.7 0 0 1 3.125.546v1.563a6.25 6.25 0 0 0-3.125-.781 4.78 4.78 0 0 0-3.672 1.562 5.7 5.7 0 0 0-1.406 4.031 5.42 5.42 0 0 0 1.312 3.829 4.47 4.47 0 0 0 3.453 1.421 6.47 6.47 0 0 0 3.422-.874zm6.39.765a4.35 4.35 0 0 1-3.328-1.39 4.86 4.86 0 0 1-1.234-3.485 5.06 5.06 0 0 1 1.297-3.687 4.7 4.7 0 0 1 3.484-1.328 4.2 4.2 0 0 1 3.266 1.296 5.13 5.13 0 0 1 1.171 3.579 5.03 5.03 0 0 1-1.265 3.593 4.44 4.44 0 0 1-3.39 1.422m.11-8.547a2.86 2.86 0 0 0-2.282.985 4.05 4.05 0 0 0-.843 2.718 3.83 3.83 0 0 0 .843 2.626 2.89 2.89 0 0 0 2.282.968 2.75 2.75 0 0 0 2.234-.937 4.1 4.1 0 0 0 .781-2.688 4.16 4.16 0 0 0-.781-2.703 2.74 2.74 0 0 0-2.234-.969m11.842.469a1.84 1.84 0 0 0-1.14-.297 1.92 1.92 0 0 0-1.563.906 4.2 4.2 0 0 0-.64 2.47v4.78H54.25V68.36h1.563v1.954a3.3 3.3 0 0 1 .984-1.563c.407-.354.93-.548 1.469-.547.302-.013.604.029.89.125zm9.157 3.562h-6.61a3.5 3.5 0 0 0 .797 2.407 2.9 2.9 0 0 0 2.219.843 4.7 4.7 0 0 0 2.906-1.046v1.406a5.44 5.44 0 0 1-3.266.89 3.97 3.97 0 0 1-3.125-1.28 5.23 5.23 0 0 1-1.14-3.595 5.13 5.13 0 0 1 1.234-3.562 3.99 3.99 0 0 1 3.125-1.375 3.53 3.53 0 0 1 2.844 1.187 4.97 4.97 0 0 1 1 3.313zm-1.563-1.265a3.12 3.12 0 0 0-.625-2.016 2.14 2.14 0 0 0-1.719-.719 2.42 2.42 0 0 0-1.797.766 3.45 3.45 0 0 0-.922 1.984z"/></g><defs><clipPath id="a"><path fill="#fff" d="M0 0h100v100H0z"/></clipPath></defs></svg>